<?xml version="1.0" encoding="UTF-8"?>
<svg id="Layer_1" xmlns="http://www.w3.org/2000/svg" version="1.1" viewBox="0 0 1080 1080">
  <!-- Generator: Adobe Illustrator 29.0.1, SVG Export Plug-In . SVG Version: 2.1.0 Build 192)  -->
  <defs>
    <style>
      .st0 {
        fill: #6f0707;
      }
    </style>
  </defs>
  <g id="PlBmzU">
    <g>
      <path class="st0" d="M871.07,392.58c-16.25-2.27-33.27-3.35-48.65,3.31-10.82,4.69-20.47,12.98-16.98,26.12,1.66,6.24,12.03,22.01,15.44,29.69,64.5,145.6-46.81,299.35-202.2,291.41-4.43-.23-22.8-1.96-25.73-3.65-.5-.29-1.35-1.35-1.04-1.57,91.78-4.29,172.58-72.84,197-160.36,31.77-113.84-29-222.43-134.38-268.03l-43.73-15.55c31.44-2.9,63.16-.6,94.44,3.13-8.3-19.61-18.93-39.98-17.32-61.91,31,31.55,69.04,54.88,103.27,82.49,12.87,10.38,27.37,22.86,37.86,35.6,3.69,4.49,6.03,10.11,9.95,14.18,8.88,9.22,23.57,15.31,32.06,25.13Z"/>
      <path class="st0" d="M576.17,707.42c-.21-1.52,2.85-1.6,3.96-1.79,23.08-3.92,38.76-6.08,60.43-16.19,87.1-40.65,130.24-148.29,44.2-216.02-60.88-47.92-166.52-32.58-240.35-34.62-81.86-2.26-192.82-16.49-230.17-101.47-7.62-17.34-12.1-36.95-11.68-56,5.8,6.46,9.41,14.64,14.7,21.49,54.76,70.84,170.69,89.93,254.61,100.12,92.8,11.26,252.51,9.98,277.99,127.11,22.39,102.9-78.28,181.32-173.69,177.36Z"/>
      <path class="st0" d="M698.96,420.91c-55.51-23.58-116.67-28.82-175.27-41.43-90.22-19.41-216.7-55.1-251.62-151.38-11.77-32.44-11.97-72.2-.27-104.73.61-1.71,10.29-24.18,11.56-22.54-14.58,138.26,128.92,202.56,235.89,243.21,44.65,16.97,92.88,30.27,136.35,49.41,15.23,6.7,32.24,15.02,43.37,27.46Z"/>
      <path class="st0" d="M766.11,531.12l-5.75-38.84c-34.68-168.42-258.56-140.63-343.1-268.75-23.68-35.89-31.87-88.84-6.38-125.84.58,6.16-.9,12.13-.57,18.4,4.33,83.6,95.58,141.2,160.96,176.98,63.66,34.84,148.35,66.95,179.61,137.34,14.01,31.55,18.35,66.38,15.24,100.71Z"/>
      <path class="st0" d="M398.8,999.18c39.03-29,63.69-70.24,86.6-112.26,24.03-44.08,44-90.42,70.38-133.22l16.17-23.17c-16.03,47.32-23.51,97.33-39.57,144.6-21.99,64.7-63.09,112.89-133.58,124.05Z"/>
      <path class="st0" d="M553.09,695.89c3.78-13.16,7.11-26.71,8.37-40.42,3.22-34.89-4.15-69.79,1.37-104.63,6.37-40.27,31.41-71.69,67.9-88.99l-13.13,19.92c-21.67,42.49-21.8,91.6-30.22,137.7-5.02,27.49-12.09,57.73-34.29,76.42Z"/>
      <path class="st0" d="M374.67,903.68l29.09-16.55c28.79-21.29,48.01-51.4,70.64-78.39,23.13-27.59,48.32-54.31,78.67-74.02l-23.51,35.77c-29.47,45.94-51.42,106.89-107.11,126.92-14.87,5.35-32.1,8.55-47.77,6.26Z"/>
      <path class="st0" d="M554.14,870.1c9.43-27.13,14.54-55.51,19.6-83.76,2.86-15.94,4.21-35.68,7.98-50.8.26-1.06.3-3.16,1.78-2.91,4.2,46.45,22.74,111.22-29.36,137.48Z"/>
    </g>
  </g>
</svg>
